<?xml version="1.0" encoding="UTF-8" standalone="no"?>
<!DOCTYPE svg PUBLIC "-//W3C//DTD SVG 20010904//EN"
              "http://www.w3.org/TR/2001/REC-SVG-20010904/DTD/svg10.dtd">

<svg xmlns="http://www.w3.org/2000/svg"
     width="3.2in" height="1.6in"
     viewBox="0 0 960 480">
  <path id="Selection"
        fill="none" stroke="black" stroke-width="1"
        d="M 353.00,126.00
           C 353.00,126.00 355.00,126.00 355.00,126.00
             355.00,126.00 356.00,155.00 356.00,155.00
             356.00,155.00 357.00,131.00 357.00,131.00
             357.00,137.48 358.52,152.07 355.00,157.00
             358.46,159.33 358.59,162.25 360.00,166.00
             360.00,166.00 361.00,163.00 361.00,163.00
             361.00,163.00 363.00,167.00 363.00,167.00
             363.00,167.00 361.00,169.00 361.00,169.00
             361.00,169.00 366.00,171.00 366.00,171.00
             366.00,171.00 364.00,173.00 364.00,173.00
             369.93,176.72 368.00,187.71 368.00,194.00
             368.00,205.78 367.33,240.59 370.00,250.00
             370.00,250.00 371.00,233.00 371.00,233.00
             371.00,233.00 371.00,250.00 371.00,250.00
             371.00,250.00 377.00,251.00 377.00,251.00
             377.00,251.00 369.00,252.00 369.00,252.00
             369.00,252.00 385.00,253.00 385.00,253.00
             385.00,253.00 386.00,260.00 386.00,260.00
             386.00,260.00 387.00,253.00 387.00,253.00
             387.00,253.00 387.00,261.00 387.00,261.00
             387.00,261.00 390.00,262.00 390.00,262.00
             390.00,262.00 387.00,263.00 387.00,263.00
             387.00,263.00 394.00,265.00 394.00,265.00
             394.00,265.00 396.00,274.00 396.00,274.00
             396.00,274.00 398.00,272.00 398.00,272.00
             398.00,272.00 401.00,282.00 401.00,282.00
             401.00,282.00 398.00,283.00 398.00,283.00
             398.00,283.00 408.00,283.00 408.00,283.00
             408.00,283.00 409.00,304.00 409.00,304.00
             409.00,304.00 410.00,284.00 410.00,284.00
             410.00,284.00 411.00,286.00 411.00,286.00
             411.00,286.00 412.00,283.00 412.00,283.00
             412.00,283.00 413.00,286.00 413.00,286.00
             414.70,282.10 416.29,284.61 418.00,287.00
             418.00,287.00 419.00,284.00 419.00,284.00
             419.00,284.00 421.00,288.00 421.00,288.00
             421.00,288.00 417.00,289.00 417.00,289.00
             424.61,290.34 420.45,294.03 423.00,303.00
             423.00,303.00 424.00,290.00 424.00,290.00
             424.00,290.00 424.00,300.00 424.00,300.00
             424.00,300.00 434.00,298.00 434.00,298.00
             434.00,298.00 428.00,297.00 428.00,297.00
             428.00,297.00 432.00,297.00 432.00,297.00
             432.00,290.24 430.69,288.06 437.00,285.00
             437.00,285.00 436.00,282.00 436.00,282.00
             436.00,282.00 439.00,281.00 439.00,281.00
             435.76,278.09 437.00,272.05 437.00,268.00
             437.00,253.78 436.30,249.36 439.00,235.00
             439.00,235.00 453.00,233.00 453.00,233.00
             453.00,233.00 454.00,247.00 454.00,247.00
             454.00,247.00 455.00,233.00 455.00,233.00
             455.00,233.00 455.00,247.00 455.00,247.00
             455.00,247.00 461.00,247.00 461.00,247.00
             461.00,247.00 462.00,233.00 462.00,233.00
             462.00,233.00 462.00,249.00 462.00,249.00
             462.00,249.00 453.00,249.00 453.00,249.00
             453.00,249.00 463.00,250.00 463.00,250.00
             463.00,250.00 464.00,217.00 464.00,217.00
             473.13,215.36 481.86,215.79 491.00,217.00
             491.00,217.00 491.00,258.00 491.00,258.00
             491.00,258.00 492.00,280.00 492.00,280.00
             492.00,280.00 492.00,237.00 492.00,237.00
             492.00,237.00 493.00,217.00 493.00,217.00
             493.00,217.00 493.00,279.00 493.00,279.00
             493.00,279.00 498.00,279.00 498.00,279.00
             498.00,272.55 497.12,251.73 499.00,247.00
             499.00,247.00 500.00,277.00 500.00,277.00
             500.00,277.00 500.00,246.00 500.00,246.00
             500.00,246.00 512.00,245.00 512.00,245.00
             512.00,245.00 537.00,245.00 537.00,245.00
             537.00,245.00 538.00,270.00 538.00,270.00
             538.00,270.00 539.00,245.00 539.00,245.00
             539.00,245.00 539.00,269.00 539.00,269.00
             539.00,269.00 546.00,270.00 546.00,270.00
             546.00,270.00 539.00,271.00 539.00,271.00
             545.62,271.09 546.06,271.46 551.00,276.00
             549.93,270.02 549.07,267.57 552.00,262.00
             552.00,262.00 558.00,263.00 558.00,263.00
             558.00,263.00 559.00,266.00 559.00,266.00
             559.00,266.00 560.00,255.00 560.00,255.00
             560.00,255.00 561.00,266.00 561.00,266.00
             561.00,259.78 559.49,255.80 565.00,252.00
             565.00,252.00 562.00,251.00 562.00,251.00
             562.00,251.00 567.00,250.00 567.00,250.00
             564.95,247.12 564.71,246.34 566.00,243.00
             566.00,243.00 567.00,248.00 567.00,248.00
             567.00,248.00 567.00,243.00 567.00,243.00
             567.00,243.00 583.00,242.00 583.00,242.00
             583.00,242.00 584.00,243.00 584.00,243.00
             584.00,243.00 584.00,250.00 584.00,250.00
             584.00,250.00 585.00,245.00 585.00,245.00
             585.00,245.00 585.00,250.00 585.00,250.00
             585.00,250.00 600.00,251.00 600.00,251.00
             600.00,251.00 601.00,263.00 601.00,263.00
             601.00,263.00 604.00,264.00 604.00,264.00
             604.00,264.00 605.00,236.00 605.00,236.00
             605.00,236.00 606.00,264.00 606.00,264.00
             606.00,264.00 606.00,242.00 606.00,242.00
             606.12,235.40 607.64,235.09 614.00,235.00
             614.00,235.00 644.00,236.00 644.00,236.00
             644.00,236.00 645.00,239.00 645.00,239.00
             645.00,239.00 646.00,230.00 646.00,230.00
             646.00,230.00 647.00,236.00 647.00,236.00
             647.00,236.00 648.00,225.00 648.00,225.00
             648.00,225.00 650.00,225.00 650.00,225.00
             650.00,225.00 652.00,236.00 652.00,236.00
             652.00,236.00 653.00,232.00 653.00,232.00
             653.00,232.00 656.66,249.04 656.66,249.04
             656.66,249.04 658.00,264.00 658.00,264.00
             658.00,264.00 659.00,248.00 659.00,248.00
             659.00,248.00 660.00,265.00 660.00,265.00
             660.00,265.00 657.00,266.00 657.00,266.00
             657.00,266.00 661.00,270.00 661.00,270.00
             661.00,270.00 662.00,266.00 662.00,266.00
             664.87,274.97 672.79,268.76 678.69,271.60
             680.75,272.59 681.26,275.03 682.00,277.00
             682.00,277.00 682.00,272.00 682.00,272.00
             684.45,270.89 683.96,268.46 684.00,266.00
             684.07,260.49 683.65,258.57 685.00,253.00
             685.00,253.00 692.44,246.05 692.44,246.05
             692.44,246.05 707.00,243.00 707.00,243.00
             707.00,243.00 706.00,239.00 706.00,239.00
             706.00,239.00 717.00,238.00 717.00,238.00
             717.00,238.00 718.00,245.00 718.00,245.00
             718.00,245.00 719.00,239.00 719.00,239.00
             719.00,239.00 720.90,251.00 720.90,251.00
             720.90,251.00 720.90,265.00 720.90,265.00
             720.90,265.00 724.00,266.00 724.00,266.00
             724.00,266.00 721.00,267.00 721.00,267.00
             726.51,268.34 732.53,268.55 738.00,267.00
             738.00,267.00 725.00,266.00 725.00,266.00
             725.00,266.00 736.00,266.00 736.00,266.00
             736.00,266.00 737.00,262.00 737.00,262.00
             737.00,262.00 738.00,266.00 738.00,266.00
             738.00,266.00 738.00,261.00 738.00,261.00
             738.00,261.00 745.00,260.00 745.00,260.00
             745.00,260.00 743.00,258.00 743.00,258.00
             749.77,254.83 755.53,254.87 762.00,259.00
             762.00,259.00 758.00,260.00 758.00,260.00
             758.00,260.00 763.00,260.00 763.00,260.00
             763.00,260.00 765.00,270.00 765.00,270.00
             765.00,270.00 766.00,264.00 766.00,264.00
             766.00,264.00 766.00,270.00 766.00,270.00
             773.46,270.12 789.29,269.90 796.00,268.00
             796.00,268.00 783.00,267.00 783.00,267.00
             783.00,267.00 796.00,267.00 796.00,267.00
             796.00,267.00 797.00,248.00 797.00,248.00
             797.00,248.00 798.00,270.00 798.00,270.00
             798.00,270.00 798.00,248.00 798.00,248.00
             798.00,248.00 816.00,244.00 816.00,244.00
             816.00,244.00 813.00,243.00 813.00,243.00
             813.00,243.00 815.00,242.00 815.00,242.00
             815.00,242.00 815.00,241.00 815.00,241.00
             815.00,241.00 825.00,240.04 825.00,240.04
             835.53,239.62 837.04,242.48 844.03,244.34
             844.03,244.34 851.00,246.00 851.00,246.00
             851.00,246.00 842.00,247.00 842.00,247.00
             842.00,247.00 851.00,247.00 851.00,247.00
             851.00,247.00 852.00,267.00 852.00,267.00
             852.00,267.00 854.00,265.00 854.00,265.00
             854.00,265.00 855.00,268.00 855.00,268.00
             855.00,268.00 852.00,269.00 852.00,269.00
             852.00,269.00 854.41,270.59 854.41,270.59
             854.41,270.59 855.00,289.00 855.00,289.00
             855.00,289.00 856.00,303.00 856.00,303.00
             856.00,303.00 857.00,328.00 857.00,328.00
             857.00,321.44 856.11,299.76 858.00,295.00
             858.00,295.00 858.00,329.00 858.00,329.00
             858.00,329.00 861.00,330.00 861.00,330.00
             861.00,330.00 857.00,331.00 857.00,331.00
             857.00,331.00 876.00,333.00 876.00,333.00
             875.98,331.38 875.58,330.40 877.07,329.13
             878.18,328.18 882.48,327.52 884.00,327.29
             889.76,326.45 895.17,325.91 901.00,326.00
             908.57,326.13 907.97,327.86 908.00,341.00
             908.00,341.00 933.00,341.00 933.00,341.00
             930.31,337.31 935.27,336.19 938.02,335.73
             947.74,334.10 950.25,332.49 960.00,335.00
             960.00,335.00 960.00,355.00 960.00,355.00
             960.00,355.00 0.00,355.00 0.00,355.00
             0.00,355.00 0.00,322.00 0.00,322.00
             0.00,322.00 11.00,320.00 11.00,320.00
             11.00,320.00 7.00,319.00 7.00,319.00
             7.00,319.00 21.00,313.00 21.00,313.00
             19.61,310.24 20.85,306.77 22.00,304.00
             22.00,304.00 23.00,309.00 23.00,309.00
             23.00,309.00 24.00,293.00 24.00,293.00
             30.65,291.89 27.55,288.11 30.00,282.00
             30.00,282.00 31.00,289.00 31.00,289.00
             31.00,284.54 30.18,279.97 33.81,277.00
             33.81,277.00 33.81,283.00 33.81,283.00
             33.81,283.00 34.94,292.00 34.94,292.00
             34.94,292.00 34.94,300.00 34.94,300.00
             42.24,298.89 51.30,294.22 58.00,299.00
             58.00,299.00 58.00,297.00 58.00,297.00
             58.00,297.00 61.00,299.00 61.00,299.00
             61.00,299.00 59.00,301.00 59.00,301.00
             59.00,301.00 67.00,303.00 67.00,303.00
             65.63,305.01 67.69,308.27 69.00,310.00
             69.00,310.00 68.00,306.00 68.00,306.00
             68.00,306.00 84.00,305.00 84.00,305.00
             84.00,305.00 71.00,304.00 71.00,304.00
             86.20,304.00 78.70,301.71 89.00,300.00
             89.00,300.00 92.00,307.00 92.00,307.00
             92.00,307.00 94.00,289.00 94.00,289.00
             94.00,289.00 95.00,306.00 95.00,306.00
             95.00,306.00 95.00,282.00 95.00,282.00
             95.00,282.00 94.00,288.00 94.00,288.00
             94.00,288.00 96.00,278.00 96.00,278.00
             96.00,278.00 99.00,278.00 99.00,278.00
             97.97,274.36 97.58,272.59 99.00,269.00
             99.00,269.00 100.00,275.00 100.00,275.00
             100.00,275.00 101.00,259.00 101.00,259.00
             101.00,259.00 103.00,259.00 103.00,259.00
             103.00,259.00 104.00,269.00 104.00,269.00
             104.00,269.00 105.00,259.00 105.00,259.00
             105.00,259.00 105.00,273.00 105.00,273.00
             105.00,273.00 107.28,283.00 107.28,283.00
             107.28,283.00 110.00,302.00 110.00,302.00
             110.00,302.00 111.00,292.00 111.00,292.00
             111.00,297.89 110.59,301.46 113.00,307.00
             113.00,307.00 114.00,304.00 114.00,304.00
             114.00,304.00 115.00,307.00 115.00,307.00
             115.00,307.00 116.00,301.00 116.00,301.00
             116.00,301.00 125.00,301.00 125.00,301.00
             125.00,301.00 127.00,309.00 127.00,309.00
             127.00,309.00 128.00,305.00 128.00,305.00
             128.00,305.00 130.00,310.00 130.00,310.00
             130.00,310.00 125.00,311.00 125.00,311.00
             125.00,311.00 131.00,312.00 131.00,312.00
             131.00,312.00 132.00,305.00 132.00,305.00
             132.00,305.00 133.00,312.00 133.00,312.00
             133.00,312.00 134.00,299.00 134.00,299.00
             134.00,299.00 136.00,301.00 136.00,301.00
             138.42,295.17 142.23,300.48 153.00,296.00
             153.00,296.00 149.00,295.00 149.00,295.00
             149.00,295.00 153.00,295.00 153.00,295.00
             153.00,295.00 158.00,292.00 158.00,292.00
             158.00,292.00 154.00,291.00 154.00,291.00
             154.00,291.00 157.00,289.00 157.00,289.00
             157.00,289.00 157.00,291.00 157.00,291.00
             157.00,291.00 161.00,288.00 161.00,288.00
             161.00,288.00 158.00,287.00 158.00,287.00
             158.00,287.00 162.00,287.00 162.00,287.00
             162.00,287.00 163.00,284.00 163.00,284.00
             163.00,284.00 164.00,287.00 164.00,287.00
             164.56,285.14 164.68,283.96 166.31,282.60
             168.98,280.37 178.48,280.77 182.00,281.17
             186.81,281.72 190.58,283.74 188.00,289.00
             188.00,289.00 192.00,293.00 192.00,293.00
             192.00,293.00 193.00,290.00 193.00,290.00
             193.00,290.00 195.00,294.00 195.00,294.00
             195.00,294.00 191.00,295.00 191.00,295.00
             191.00,295.00 211.00,296.00 211.00,296.00
             211.00,296.00 212.00,305.00 212.00,305.00
             212.00,305.00 213.00,297.00 213.00,297.00
             213.00,297.00 214.00,305.00 214.00,305.00
             214.00,305.00 218.00,301.00 218.00,301.00
             218.00,301.00 215.00,300.00 215.00,300.00
             222.36,297.93 223.27,295.24 233.00,298.00
             235.84,290.41 233.79,279.91 242.09,276.60
             242.09,276.60 252.00,275.00 252.00,275.00
             252.00,275.00 243.00,274.00 243.00,274.00
             243.00,274.00 250.00,274.00 250.00,274.00
             250.00,274.00 251.00,252.00 251.00,252.00
             251.00,252.00 252.00,274.00 252.00,274.00
             252.00,274.00 252.00,258.00 252.00,258.00
             252.03,256.41 251.93,254.05 252.99,252.74
             254.37,251.04 257.03,251.11 259.00,251.01
             262.75,250.79 273.64,248.84 276.40,251.01
             277.95,252.24 278.39,256.88 279.00,259.00
             279.00,259.00 280.00,251.00 280.00,251.00
             280.00,251.00 281.00,257.00 281.00,257.00
             281.00,257.00 282.00,254.00 282.00,254.00
             288.18,252.72 289.37,249.18 293.00,248.26
             295.42,247.64 304.71,252.79 306.53,254.67
             307.93,256.12 308.39,258.15 309.00,260.00
             318.15,253.97 319.87,258.82 327.00,259.00
             327.00,259.00 331.00,263.00 331.00,263.00
             331.00,263.00 330.00,265.00 330.00,265.00
             330.00,265.00 333.00,271.00 333.00,271.00
             333.00,271.00 334.00,265.00 334.00,265.00
             334.00,265.00 336.00,274.00 336.00,274.00
             336.00,274.00 337.00,266.00 337.00,266.00
             337.00,266.00 338.00,278.00 338.00,278.00
             338.00,278.00 339.00,258.00 339.00,258.00
             339.00,258.00 340.00,212.00 340.00,212.00
             340.00,212.00 341.00,195.00 341.00,195.00
             341.00,195.00 341.60,174.27 341.60,174.27
             341.60,174.27 345.00,171.00 345.00,171.00
             345.00,171.00 342.00,170.00 342.00,170.00
             342.00,170.00 349.00,168.00 349.00,168.00
             347.21,163.69 350.06,158.48 350.70,154.00
             351.73,146.76 349.71,132.76 352.00,127.00
             352.00,127.00 353.00,157.00 353.00,157.00
             353.00,157.00 353.00,126.00 353.00,126.00 Z
           M 350.00,166.00
           C 350.00,166.00 349.00,166.00 349.00,166.00
             349.00,166.00 350.00,167.00 350.00,167.00
             350.00,167.00 350.00,166.00 350.00,166.00 Z
           M 361.00,167.00
           C 361.00,167.00 360.00,167.00 360.00,167.00
             360.00,167.00 361.00,168.00 361.00,168.00
             361.00,168.00 361.00,167.00 361.00,167.00 Z
           M 652.00,237.00
           C 652.00,237.00 651.00,237.00 651.00,237.00
             651.00,237.00 652.00,238.00 652.00,238.00
             652.00,238.00 652.00,237.00 652.00,237.00 Z
           M 653.00,239.00
           C 653.00,239.00 652.00,239.00 652.00,239.00
             652.00,239.00 653.00,240.00 653.00,240.00
             653.00,240.00 653.00,239.00 653.00,239.00 Z
           M 645.00,240.00
           C 645.00,240.00 644.00,240.00 644.00,240.00
             644.00,240.00 645.00,241.00 645.00,241.00
             645.00,241.00 645.00,240.00 645.00,240.00 Z
           M 708.00,241.00
           C 708.00,241.00 707.00,241.00 707.00,241.00
             707.00,241.00 708.00,242.00 708.00,242.00
             708.00,242.00 708.00,241.00 708.00,241.00 Z
           M 439.00,243.00
           C 437.82,245.98 438.01,247.84 438.00,251.00
             437.99,257.23 437.10,275.20 439.00,280.00
             439.00,280.00 439.00,243.00 439.00,243.00 Z
           M 655.00,243.00
           C 655.00,243.00 654.00,243.00 654.00,243.00
             654.00,243.00 655.00,244.00 655.00,244.00
             655.00,244.00 655.00,243.00 655.00,243.00 Z
           M 817.00,243.00
           C 817.00,243.00 816.00,243.00 816.00,243.00
             816.00,243.00 817.00,244.00 817.00,244.00
             817.00,244.00 817.00,243.00 817.00,243.00 Z
           M 842.00,245.00
           C 842.00,245.00 841.00,245.00 841.00,245.00
             841.00,245.00 842.00,246.00 842.00,246.00
             842.00,246.00 842.00,245.00 842.00,245.00 Z
           M 718.00,246.00
           C 718.00,246.00 717.00,246.00 717.00,246.00
             717.00,246.00 718.00,247.00 718.00,247.00
             718.00,247.00 718.00,246.00 718.00,246.00 Z
           M 719.00,247.00
           C 719.00,247.00 718.00,247.00 718.00,247.00
             718.00,247.00 719.00,248.00 719.00,248.00
             719.00,248.00 719.00,247.00 719.00,247.00 Z
           M 691.00,249.00
           C 691.00,249.00 690.00,249.00 690.00,249.00
             690.00,249.00 691.00,250.00 691.00,250.00
             691.00,250.00 691.00,249.00 691.00,249.00 Z
           M 720.00,249.00
           C 718.47,252.85 718.47,261.15 720.00,265.00
             720.00,265.00 720.00,249.00 720.00,249.00 Z
           M 690.00,250.00
           C 690.00,250.00 689.00,250.00 689.00,250.00
             689.00,250.00 690.00,251.00 690.00,251.00
             690.00,251.00 690.00,250.00 690.00,250.00 Z
           M 591.00,251.00
           C 591.00,251.00 583.00,252.00 583.00,252.00
             583.00,252.00 591.00,251.00 591.00,251.00 Z
           M 686.00,255.00
           C 684.44,258.93 684.44,269.07 686.00,273.00
             686.00,273.00 686.00,255.00 686.00,255.00 Z
           M 283.00,256.00
           C 283.00,256.00 282.00,256.00 282.00,256.00
             282.00,256.00 283.00,257.00 283.00,257.00
             283.00,257.00 283.00,256.00 283.00,256.00 Z
           M 282.00,258.00
           C 282.00,258.00 281.00,258.00 281.00,258.00
             281.00,258.00 282.00,259.00 282.00,259.00
             282.00,259.00 282.00,258.00 282.00,258.00 Z
           M 281.00,259.00
           C 281.00,259.00 280.00,259.00 280.00,259.00
             280.00,259.00 281.00,260.00 281.00,260.00
             281.00,260.00 281.00,259.00 281.00,259.00 Z
           M 309.00,260.00
           C 309.00,260.00 308.00,260.00 308.00,260.00
             308.00,260.00 309.00,261.00 309.00,261.00
             309.00,261.00 309.00,260.00 309.00,260.00 Z
           M 308.00,261.00
           C 308.00,261.00 307.00,261.00 307.00,261.00
             307.00,261.00 308.00,262.00 308.00,262.00
             308.00,262.00 308.00,261.00 308.00,261.00 Z
           M 327.00,261.00
           C 327.00,261.00 326.00,261.00 326.00,261.00
             326.00,261.00 327.00,262.00 327.00,262.00
             327.00,262.00 327.00,261.00 327.00,261.00 Z
           M 386.00,261.00
           C 386.00,261.00 385.00,261.00 385.00,261.00
             385.00,261.00 386.00,262.00 386.00,262.00
             386.00,262.00 386.00,261.00 386.00,261.00 Z
           M 328.00,262.00
           C 328.00,262.00 327.00,262.00 327.00,262.00
             327.00,262.00 328.00,263.00 328.00,263.00
             328.00,263.00 328.00,262.00 328.00,262.00 Z
           M 329.00,263.00
           C 329.00,263.00 328.00,263.00 328.00,263.00
             328.00,263.00 329.00,264.00 329.00,264.00
             329.00,264.00 329.00,263.00 329.00,263.00 Z
           M 602.00,264.00
           C 602.00,264.00 601.00,264.00 601.00,264.00
             601.00,264.00 602.00,265.00 602.00,265.00
             602.00,265.00 602.00,264.00 602.00,264.00 Z
           M 552.00,265.00
           C 552.00,265.00 551.00,265.00 551.00,265.00
             551.00,265.00 552.00,266.00 552.00,266.00
             552.00,266.00 552.00,265.00 552.00,265.00 Z
           M 720.00,266.00
           C 720.00,266.00 719.00,266.00 719.00,266.00
             719.00,266.00 720.00,267.00 720.00,267.00
             720.00,267.00 720.00,266.00 720.00,266.00 Z
           M 394.00,267.00
           C 394.00,267.00 393.00,267.00 393.00,267.00
             393.00,267.00 394.00,268.00 394.00,268.00
             394.00,268.00 394.00,267.00 394.00,267.00 Z
           M 395.00,268.00
           C 395.00,268.00 394.00,268.00 394.00,268.00
             394.00,268.00 395.00,269.00 395.00,269.00
             395.00,269.00 395.00,268.00 395.00,268.00 Z
           M 104.00,270.00
           C 104.00,270.00 103.00,270.00 103.00,270.00
             103.00,270.00 104.00,271.00 104.00,271.00
             104.00,271.00 104.00,270.00 104.00,270.00 Z
           M 395.00,270.00
           C 395.00,270.00 394.00,270.00 394.00,270.00
             394.00,270.00 395.00,271.00 395.00,271.00
             395.00,271.00 395.00,270.00 395.00,270.00 Z
           M 105.00,271.00
           C 105.00,271.00 104.00,271.00 104.00,271.00
             104.00,271.00 105.00,272.00 105.00,272.00
             105.00,272.00 105.00,271.00 105.00,271.00 Z
           M 538.00,271.00
           C 538.00,271.00 537.00,271.00 537.00,271.00
             537.00,271.00 538.00,272.00 538.00,272.00
             538.00,272.00 538.00,271.00 538.00,271.00 Z
           M 772.00,271.00
           C 772.00,271.00 764.00,272.00 764.00,272.00
             764.00,272.00 772.00,271.00 772.00,271.00 Z
           M 798.00,271.00
           C 798.00,271.00 797.00,271.00 797.00,271.00
             797.00,271.00 798.00,272.00 798.00,272.00
             798.00,272.00 798.00,271.00 798.00,271.00 Z
           M 334.00,272.00
           C 334.00,272.00 333.00,272.00 333.00,272.00
             333.00,272.00 334.00,273.00 334.00,273.00
             334.00,273.00 334.00,272.00 334.00,272.00 Z
           M 397.00,275.00
           C 397.00,275.00 396.00,275.00 396.00,275.00
             396.00,275.00 397.00,276.00 397.00,276.00
             397.00,276.00 397.00,275.00 397.00,275.00 Z
           M 100.00,276.00
           C 100.00,276.00 99.00,276.00 99.00,276.00
             99.00,276.00 100.00,277.00 100.00,277.00
             100.00,277.00 100.00,276.00 100.00,276.00 Z
           M 242.00,277.00
           C 242.00,277.00 241.00,277.00 241.00,277.00
             241.00,277.00 242.00,278.00 242.00,278.00
             242.00,278.00 242.00,277.00 242.00,277.00 Z
           M 551.00,277.00
           C 551.00,277.00 550.00,277.00 550.00,277.00
             550.00,277.00 551.00,278.00 551.00,278.00
             551.00,278.00 551.00,277.00 551.00,277.00 Z
           M 500.00,278.00
           C 500.00,278.00 499.00,278.00 499.00,278.00
             499.00,278.00 500.00,279.00 500.00,279.00
             500.00,279.00 500.00,278.00 500.00,278.00 Z
           M 241.00,279.00
           C 241.00,279.00 240.00,279.00 240.00,279.00
             240.00,279.00 241.00,280.00 241.00,280.00
             241.00,280.00 241.00,279.00 241.00,279.00 Z
           M 499.00,279.00
           C 499.00,279.00 498.00,279.00 498.00,279.00
             498.00,279.00 499.00,280.00 499.00,280.00
             499.00,280.00 499.00,279.00 499.00,279.00 Z
           M 240.00,280.00
           C 240.00,280.00 239.00,280.00 239.00,280.00
             239.00,280.00 240.00,281.00 240.00,281.00
             240.00,281.00 240.00,280.00 240.00,280.00 Z
           M 498.00,280.00
           C 498.00,280.00 491.00,282.00 491.00,282.00
             491.00,282.00 498.00,280.00 498.00,280.00 Z
           M 239.00,282.00
           C 239.00,282.00 238.00,282.00 238.00,282.00
             238.00,282.00 239.00,283.00 239.00,283.00
             239.00,283.00 239.00,282.00 239.00,282.00 Z
           M 187.00,283.00
           C 187.00,283.00 186.00,283.00 186.00,283.00
             186.00,283.00 187.00,284.00 187.00,284.00
             187.00,284.00 187.00,283.00 187.00,283.00 Z
           M 237.00,285.00
           C 237.00,285.00 236.00,285.00 236.00,285.00
             236.00,285.00 237.00,286.00 237.00,286.00
             237.00,286.00 237.00,285.00 237.00,285.00 Z
           M 434.00,287.00
           C 432.65,290.41 432.65,293.59 434.00,297.00
             434.00,297.00 434.00,287.00 434.00,287.00 Z
           M 34.00,289.00
           C 34.00,289.00 33.00,289.00 33.00,289.00
             33.00,289.00 34.00,290.00 34.00,290.00
             34.00,290.00 34.00,289.00 34.00,289.00 Z
           M 31.00,290.00
           C 31.00,290.00 30.00,290.00 30.00,290.00
             30.00,290.00 31.00,291.00 31.00,291.00
             31.00,291.00 31.00,290.00 31.00,290.00 Z
           M 25.00,295.00
           C 25.00,295.00 24.00,295.00 24.00,295.00
             24.00,295.00 25.00,296.00 25.00,296.00
             25.00,296.00 25.00,295.00 25.00,295.00 Z
           M 234.00,298.00
           C 234.00,298.00 233.00,298.00 233.00,298.00
             233.00,298.00 234.00,299.00 234.00,299.00
             234.00,299.00 234.00,298.00 234.00,298.00 Z
           M 221.00,299.00
           C 221.00,299.00 220.00,299.00 220.00,299.00
             220.00,299.00 221.00,300.00 221.00,300.00
             221.00,300.00 221.00,299.00 221.00,299.00 Z
           M 435.00,299.00
           C 435.00,299.00 434.00,299.00 434.00,299.00
             434.00,299.00 435.00,300.00 435.00,300.00
             435.00,300.00 435.00,299.00 435.00,299.00 Z
           M 41.00,300.00
           C 41.00,300.00 40.00,300.00 40.00,300.00
             40.00,300.00 41.00,301.00 41.00,301.00
             41.00,301.00 41.00,300.00 41.00,300.00 Z
           M 58.00,300.00
           C 58.00,300.00 57.00,300.00 57.00,300.00
             57.00,300.00 58.00,301.00 58.00,301.00
             58.00,301.00 58.00,300.00 58.00,300.00 Z
           M 59.00,301.00
           C 59.00,301.00 58.00,301.00 58.00,301.00
             58.00,301.00 59.00,302.00 59.00,302.00
             59.00,302.00 59.00,301.00 59.00,301.00 Z
           M 135.00,301.00
           C 135.00,301.00 134.00,301.00 134.00,301.00
             134.00,301.00 135.00,302.00 135.00,302.00
             135.00,302.00 135.00,301.00 135.00,301.00 Z
           M 426.00,301.00
           C 426.00,301.00 425.00,301.00 425.00,301.00
             425.00,301.00 426.00,302.00 426.00,302.00
             426.00,302.00 426.00,301.00 426.00,301.00 Z
           M 36.00,302.00
           C 36.00,302.00 35.00,302.00 35.00,302.00
             35.00,302.00 36.00,303.00 36.00,303.00
             36.00,303.00 36.00,302.00 36.00,302.00 Z
           M 85.00,302.00
           C 85.00,302.00 84.00,302.00 84.00,302.00
             84.00,302.00 85.00,303.00 85.00,303.00
             85.00,303.00 85.00,302.00 85.00,302.00 Z
           M 425.00,302.00
           C 425.00,302.00 424.00,302.00 424.00,302.00
             424.00,302.00 425.00,303.00 425.00,303.00
             425.00,303.00 425.00,302.00 425.00,302.00 Z
           M 110.00,303.00
           C 110.00,303.00 109.00,303.00 109.00,303.00
             109.00,303.00 110.00,304.00 110.00,304.00
             110.00,304.00 110.00,303.00 110.00,303.00 Z
           M 135.00,303.00
           C 135.00,303.00 134.00,303.00 134.00,303.00
             134.00,303.00 135.00,304.00 135.00,304.00
             135.00,304.00 135.00,303.00 135.00,303.00 Z
           M 409.00,305.00
           C 409.00,305.00 408.00,305.00 408.00,305.00
             408.00,305.00 409.00,306.00 409.00,306.00
             409.00,306.00 409.00,305.00 409.00,305.00 Z
           M 422.00,305.00
           C 422.00,305.00 421.00,305.00 421.00,305.00
             421.00,305.00 422.00,306.00 422.00,306.00
             422.00,306.00 422.00,305.00 422.00,305.00 Z
           M 70.00,308.00
           C 70.00,308.00 69.00,308.00 69.00,308.00
             69.00,308.00 70.00,309.00 70.00,309.00
             70.00,309.00 70.00,308.00 70.00,308.00 Z
           M 23.00,310.00
           C 23.00,310.00 22.00,310.00 22.00,310.00
             22.00,310.00 23.00,311.00 23.00,311.00
             23.00,311.00 23.00,310.00 23.00,310.00 Z
           M 68.00,311.00
           C 68.00,311.00 67.00,311.00 67.00,311.00
             67.00,311.00 68.00,312.00 68.00,312.00
             68.00,312.00 68.00,311.00 68.00,311.00 Z
           M 12.00,319.00
           C 12.00,319.00 11.00,319.00 11.00,319.00
             11.00,319.00 12.00,320.00 12.00,320.00
             12.00,320.00 12.00,319.00 12.00,319.00 Z
           M 906.00,327.00
           C 906.00,327.00 905.00,327.00 905.00,327.00
             905.00,327.00 906.00,328.00 906.00,328.00
             906.00,328.00 906.00,327.00 906.00,327.00 Z
           M 857.00,329.00
           C 857.00,329.00 856.00,329.00 856.00,329.00
             856.00,329.00 857.00,330.00 857.00,330.00
             857.00,330.00 857.00,329.00 857.00,329.00 Z
           M 878.00,330.00
           C 878.00,330.00 877.00,330.00 877.00,330.00
             877.00,330.00 878.00,331.00 878.00,331.00
             878.00,331.00 878.00,330.00 878.00,330.00 Z
           M 877.00,331.00
           C 877.00,331.00 876.00,331.00 876.00,331.00
             876.00,331.00 877.00,332.00 877.00,332.00
             877.00,332.00 877.00,331.00 877.00,331.00 Z
           M 935.00,337.00
           C 935.00,337.00 934.00,337.00 934.00,337.00
             934.00,337.00 935.00,338.00 935.00,338.00
             935.00,338.00 935.00,337.00 935.00,337.00 Z
           M 934.00,339.00
           C 934.00,339.00 933.00,339.00 933.00,339.00
             933.00,339.00 934.00,340.00 934.00,340.00
             934.00,340.00 934.00,339.00 934.00,339.00 Z" />
</svg>
